<svg width="128" height="128" viewBox="0 0 128 128" fill="none" xmlns="http://www.w3.org/2000/svg">
<g clip-path="url(#clip0_29_38)">
<rect width="128" height="128" rx="16" fill="black"/>
<circle cx="18" cy="18" r="7" fill="white"/>
<circle cx="36" cy="18" r="7" fill="white"/>
<circle cx="54" cy="18" r="7" fill="white"/>
<circle cx="18" cy="36.4" r="7" fill="white"/>
<circle cx="36" cy="36.4" r="7" fill="white"/>
<circle cx="54" cy="36.4" r="7" fill="white"/>
<circle cx="18" cy="54.8" r="7" fill="white"/>
<circle cx="36" cy="54.8" r="7" fill="white"/>
<circle cx="54" cy="54.8" r="7" fill="white"/>
<circle cx="18" cy="73.2" r="7" fill="white"/>
<circle cx="36" cy="73.2" r="7" fill="white"/>
<circle cx="54" cy="73.2" r="7" fill="white"/>
<circle cx="18" cy="91.6" r="7" fill="white"/>
<circle cx="36" cy="91.6" r="7" fill="white"/>
<circle cx="54" cy="91.6" r="7" fill="white"/>
<circle cx="18" cy="110" r="7" fill="white"/>
<circle cx="36" cy="110" r="7" fill="white"/>
<circle cx="54" cy="110" r="7" fill="white"/>
<circle cx="68.5" cy="14.5" r="3.5" fill="white"/>
<circle cx="77.5" cy="14.5" r="3.5" fill="white"/>
<circle cx="86.5" cy="14.5" r="3.5" fill="white"/>
<circle cx="95.5" cy="14.5" r="3.5" fill="white"/>
<circle cx="104.5" cy="14.5" r="3.5" fill="white"/>
<circle cx="113.5" cy="14.5" r="3.5" fill="white"/>
<circle cx="68.5" cy="23.5" r="3.5" fill="white"/>
<circle cx="77.5" cy="23.5" r="3.5" fill="white"/>
<circle cx="86.5" cy="23.5" r="3.5" fill="white"/>
<circle cx="95.5" cy="23.5" r="3.5" fill="white"/>
<circle cx="104.5" cy="23.5" r="3.5" fill="white"/>
<circle cx="113.5" cy="23.5" r="3.5" fill="white"/>
<circle cx="68.5" cy="32.5" r="3.5" fill="white"/>
<circle cx="77.5" cy="32.5" r="3.5" fill="white"/>
<circle cx="86.5" cy="32.5" r="3.5" fill="white"/>
<circle cx="95.5" cy="32.5" r="3.5" fill="white"/>
<circle cx="104.5" cy="32.5" r="3.5" fill="white"/>
<circle cx="113.5" cy="32.5" r="3.5" fill="white"/>
<circle cx="68.5" cy="41.5" r="3.5" fill="white"/>
<circle cx="77.5" cy="41.5" r="3.5" fill="white"/>
<circle cx="86.5" cy="41.5" r="3.5" fill="white"/>
<circle cx="95.5" cy="41.5" r="3.5" fill="white"/>
<circle cx="104.5" cy="41.5" r="3.5" fill="white"/>
<circle cx="113.5" cy="41.5" r="3.5" fill="white"/>
<circle cx="68.5" cy="50.5" r="3.5" fill="white"/>
<circle cx="77.5" cy="50.5" r="3.5" fill="white"/>
<circle cx="86.5" cy="50.5" r="3.5" fill="white"/>
<circle cx="95.5" cy="50.5" r="3.5" fill="white"/>
<circle cx="104.5" cy="50.5" r="3.5" fill="white"/>
<circle cx="113.5" cy="50.5" r="3.5" fill="white"/>
<circle cx="68.5" cy="59.5" r="3.5" fill="white"/>
<circle cx="77.5" cy="59.5" r="3.5" fill="white"/>
<circle cx="86.5" cy="59.5" r="3.5" fill="white"/>
<circle cx="95.5" cy="59.5" r="3.5" fill="white"/>
<circle cx="104.5" cy="59.5" r="3.5" fill="white"/>
<circle cx="113.5" cy="59.5" r="3.5" fill="white"/>
<circle cx="68.5" cy="68.5" r="3.5" fill="white"/>
<circle cx="77.5" cy="68.5" r="3.5" fill="white"/>
<circle cx="86.5" cy="68.5" r="3.5" fill="white"/>
<circle cx="95.5" cy="68.5" r="3.5" fill="white"/>
<circle cx="104.5" cy="68.5" r="3.5" fill="white"/>
<circle cx="113.5" cy="68.5" r="3.5" fill="white"/>
<circle cx="68.5" cy="77.5" r="3.5" fill="white"/>
<circle cx="77.5" cy="77.5" r="3.5" fill="white"/>
<circle cx="86.5" cy="77.5" r="3.5" fill="white"/>
<circle cx="95.5" cy="77.5" r="3.5" fill="white"/>
<circle cx="104.5" cy="77.5" r="3.5" fill="white"/>
<circle cx="113.5" cy="77.5" r="3.5" fill="white"/>
<circle cx="68.5" cy="86.5" r="3.5" fill="white"/>
<circle cx="77.5" cy="86.5" r="3.5" fill="white"/>
<circle cx="86.5" cy="86.5" r="3.5" fill="white"/>
<circle cx="95.5" cy="86.5" r="3.5" fill="white"/>
<circle cx="104.5" cy="86.5" r="3.5" fill="white"/>
<circle cx="113.5" cy="86.5" r="3.5" fill="white"/>
<circle cx="68.5" cy="95.5" r="3.5" fill="white"/>
<circle cx="77.5" cy="95.5" r="3.5" fill="white"/>
<circle cx="86.5" cy="95.5" r="3.5" fill="white"/>
<circle cx="95.5" cy="95.5" r="3.5" fill="white"/>
<circle cx="104.5" cy="95.5" r="3.5" fill="white"/>
<circle cx="113.5" cy="95.5" r="3.5" fill="white"/>
<circle cx="68.5" cy="104.5" r="3.5" fill="white"/>
<circle cx="77.5" cy="104.5" r="3.5" fill="white"/>
<circle cx="86.5" cy="104.5" r="3.5" fill="white"/>
<circle cx="95.5" cy="104.5" r="3.5" fill="white"/>
<circle cx="104.5" cy="104.5" r="3.5" fill="white"/>
<circle cx="113.5" cy="104.5" r="3.5" fill="white"/>
<circle cx="68.5" cy="113.5" r="3.5" fill="white"/>
<circle cx="77.5" cy="113.5" r="3.5" fill="white"/>
<circle cx="86.5" cy="113.5" r="3.5" fill="white"/>
<circle cx="95.5" cy="113.5" r="3.5" fill="white"/>
<circle cx="104.5" cy="113.5" r="3.5" fill="white"/>
<circle cx="113.5" cy="113.5" r="3.5" fill="white"/>
</g>
<defs>
<clipPath id="clip0_29_38">
<rect width="128" height="128" fill="white"/>
</clipPath>
</defs>
</svg>
