<svg width="128" height="128" viewBox="0 0 128 128" fill="none" xmlns="http://www.w3.org/2000/svg">
<g clip-path="url(#clip0_204_123)">
<rect width="128" height="128" rx="16" fill="black"/>
<circle cx="21" cy="21" r="11" fill="white"/>
<circle cx="50" cy="21" r="11" fill="white"/>
<circle cx="21" cy="50" r="11" fill="white"/>
<circle cx="50" cy="50" r="11" fill="white"/>
<circle cx="21" cy="79" r="11" fill="white"/>
<circle cx="50" cy="79" r="11" fill="white"/>
<circle cx="21" cy="108" r="11" fill="white"/>
<circle cx="50" cy="108" r="11" fill="white"/>
<circle cx="76" cy="16" r="6" fill="white"/>
<circle cx="94" cy="16" r="6" fill="white"/>
<circle cx="112" cy="16" r="6" fill="white"/>
<circle cx="76" cy="32" r="6" fill="white"/>
<circle cx="94" cy="32" r="6" fill="white"/>
<circle cx="112" cy="32" r="6" fill="white"/>
<circle cx="76" cy="48" r="6" fill="white"/>
<circle cx="94" cy="48" r="6" fill="white"/>
<circle cx="112" cy="48" r="6" fill="white"/>
<circle cx="76" cy="64" r="6" fill="white"/>
<circle cx="94" cy="64" r="6" fill="white"/>
<circle cx="112" cy="64" r="6" fill="white"/>
<circle cx="76" cy="80" r="6" fill="white"/>
<circle cx="94" cy="80" r="6" fill="white"/>
<circle cx="112" cy="80" r="6" fill="white"/>
<circle cx="76" cy="96" r="6" fill="white"/>
<circle cx="94" cy="96" r="6" fill="white"/>
<circle cx="112" cy="96" r="6" fill="white"/>
<circle cx="76" cy="112" r="6" fill="white"/>
<circle cx="94" cy="112" r="6" fill="white"/>
<circle cx="112" cy="112" r="6" fill="white"/>
</g>
<defs>
<clipPath id="clip0_204_123">
<rect width="128" height="128" fill="white"/>
</clipPath>
</defs>
</svg>
